<mxfile host="Electron" modified="2023-12-15T12:06:52.448Z" agent="Mozilla/5.0 (Windows NT 10.0; Win64; x64) AppleWebKit/537.36 (KHTML, like Gecko) draw.io/21.5.1 Chrome/112.0.5615.204 Electron/24.6.0 Safari/537.36" etag="YSKgm5miz2GDK5FdT3aH" version="21.5.1" type="device">
  <diagram name="第 1 页" id="j9S3I8PBZ-tcZfa7eVTS">
    <mxGraphModel dx="905" dy="613" grid="1" gridSize="10" guides="1" tooltips="1" connect="1" arrows="1" fold="1" page="1" pageScale="1" pageWidth="827" pageHeight="1169" math="0" shadow="0">
      <root>
        <mxCell id="0" />
        <mxCell id="1" parent="0" />
        <mxCell id="w9DUgcuC_d8XELyfp8eT-1" value="" style="shape=image;imageAspect=0;aspect=fixed;verticalLabelPosition=bottom;verticalAlign=top;image=data:image/png,iVBORw0KGgoAAAANSUhEUgAAAmAAAAGaCAYAAACoiv8yAAAAAXNSR0IArs4c6QAAAERlWElmTU0AKgAAAAgAAYdpAAQAAAABAAAAGgAAAAAAA6ABAAMAAAABAAEAAKACAAQAAAABAAACYKADAAQAAAABAAABmgAAAABlP6+UAABAAElEQVR4Ae3dB5zb9P3/8e+NBAh77w1lp4QZyt6jLXuPQlkPRkvLbssPymjLA/6sljJbIGWPsguUmYQyE0ZCdggrBJIAIRBCyLg7//XW3VeWfbYl62RHll7fx+POsvXVekq2P/4uNeWcZEgIIIAAAggggAACdRNortuW2BACCCCAAAIIIICAK0AAxoWAAAIIIIAAAgjUWYAArM7gbA4BBBBAAAEEECAA4xpAAAEEEEAAAQTqLEAAVmdwNocAAggggAACCBCAcQ0ggAACCCCAAAJ1FiAAqzM4m0MAAQQQQAABBAjAuAYQQAABBBBAAIE6CxCA1RmczSGAAAIIIIAAAgRgXAMIIIAAAggggECdBQjA6gzO5hBAAAEEEEAAAQIwrgEEEEAAAQQQQKDOAgRgdQZncwgggAACCCCAAAEY1wACCCCAAAIIIFBnAQKwOoOzOQQQQAABBBBAgACMawABBBBAAAEEEKizAAFYncHZHAIIIIAAAgggQADGNYAAAggggAACCNRZgACszuBsDgEEEEAAAQQQIADjGkAAAQQQQAABBOosQABWZ3A2hwACCCCAAAIIEIBxDSCAAAIIIIAAAnUWIACrMzibQwABBBBAAAEECMC4BhBAAAEEEEAAgToLEIDVGZzNIYAAAggggAACrRAgUE+BOXPmmNmzZ5vFF1+8nptlWwiUFejo6DBffvmlmTZtmll11VXNoosuWjZvVmd899135ttvvzUrrLCCaW3layPMdTBmzBjT1tbmem2wwQZhFiFPxgR4J2XshM+Pw33jjTfMFVdcYd59913z6aefGn3h6UvuRz/6kTnmmGPcv6WWWmp+7FrDb/Pss8821157rXscb775ptlyyy0b/pjqcQCzZs0yAwYMMA888IB59dVXTXt7u7fZlVZayay//vpm2223Nb///e/NQgst5M3LyoQCh3vvvdf9e+WVV8z333/vHnpLS4tZZZVVzJprrmkOO+wwc/zxx5vevXtnhSX0ceq6Ovzww938yyyzjBvgh144BRn1Q1uf7dWmffbZxxx33HHVLta4+XMNmB599NGc/kjJFnBKunIHH3xwznl3VPxbdtllcy+++GKyDyaBe+cEDTknWPBshwwZksC9TN4uDR06NOcE/55bpetzvfXWyzk/IJJ3EDXco48++ijXv3//UD6rr756zgk2arg3jbfqjz/+OOeU8Ht+TgDWeAfRwz12Sv+846/0/iqed8YZZ/Rwy421eFUlYBMmTDBff/21YxZfWnrppc3aa69d1QpffvllN//+++9f1XJkrp+AShT0C/nxxx8v2Ghzc7NZcskl3eoeO0PVP3vssYdxgmrz85//3L7MY4DAww8/bD7//POAXMz2C4wbN87svPPOZubMmf6Xja7LNdZYw0yZMsWodMwm5VdJ2BNPPGH06zztacaMGWa33XYzH3zwQbdDXX755Y2qIv0+n3zyiTnqqKOMSg232267bstk7QV97slD1bVZTu+//36WDz/0sVcVgD3zzDPm7bffDr3yMBm33nprc+qpp3pZR48ebVR3XinZDwB9AVVKqnffcMMNK2VhXo0ELrnkkoLga7PNNjPnn3++2XXXXY2C7pEjR5pnn33W/PGPf3SrN/TBpeqM9957z6y44oo12qv0rFbVQr/85S/Tc0B1OBJdY06JbEHwtd9++5nTTjvN6HNI7RKd389m7Nix5txzzzVPPfWUu1da7le/+pUZNWpU6qsjf/vb3xYEX05JmLnooouM3r8KwOQjh8suu8w8+OCDro+qK1Xdpvdu1psSyEVV2llPKqyxaa+99jJbbbWVfVrxUddbllKTCuzCHrA+mNRQtVJ666233LY+KslQg82g5FQ/uW2BbD6VghSXmth51T7qw/WAAw6odjHy91BApaQqTdCvZSWnmsKofZI+wIvTXXfdZX7xi194L//61782f/vb37znTBi3fZJTLWRUGqPAVT88nGq0bjROFSRtwLqp5F/473//a/bee2/vBX1GybJXr17ea/4JpzrEXH/99d5L+rFw8cUXe8/TNqHPdpVkzZ071z203Xff3S2VXnjhhUse6llnneW1P1QGBWSHHHJIybxZeFE/inbaaaeC9oQ67iy2ATv99NPNjTfe6J52fadTW1XmHaAALM7kfKDljj322JzzZRFptc6bP+c0+Kz495vf/Canv6B8Whep/gL/93//59X/NzU15YYPH15xJ44++mgvvxO055xf1BXzZ23mdddd5/k4b+Oy07QBq3xlOKU0np3T7CH3ww8/VFzAqabMOb0ivWX69u1bMX+jz/zrX//qHavT8SD3zTffVDwkvU+XWGIJb5kLLrigYv40z5w+fXputdVWcy2cgD7nlOZ7LllsA+Y0KfGOX+3BSKUFEjcOmH6N9unTp+Kf2mvoLyhfuV+2ikXVE2/QoEHun6ZJ8QnYqgmtUb3ynC+uiitX1aNNaoMzePBg+5RHBGITGDhwoLeuQw891Cy44ILe81ITKvlRiYZNahoxb948+zR1j+qlbJOqjYKGilGPyM0339wuYkaMGOFNZ23i5JNPNhMnTnQP+9JLLy1wyZqFjtdWQWrIkmrbeGfJq6o2YPWCUZfnO++8s+zmbAPam266qWweVWuVKzrXQsOGDXO7oWt6kUUWMVtssYUmST0UUAA1fvx4by1hGtVvs802ZoEFFjDquqx0//33m1122cVbR9Yn1H7CKVXsxqCGruruTgoWULXaF1984WUM29ZEw1HYpOBLjdP9r9l5aXj87LPPvMNwen9605Um1GjfpkqftzZPGh9vv/1289BDD7mHtuOOO5rzzjvP3HzzzWk81FDHpPeJOmcoabiSSgUhoVaY4kw1C8DuuOMOc8QRRwSWfpSy1QlUW5dyyf4KDZOn3DqconPjVI+5s9UrjxSPgO2hatf2s5/9zE6WfVRJhBpB22UVHJPyAgpQ9Vecnn76aQKwYpQyzxVcOJUA3tyVV17Zm640MXXqVG+2St01BlZak3rvqQekUpgfQOoM5S8107h+WUv6sam2gkr6TlHBga6TLCe1V1XHFaWwgXxWvWoWgGlogWuuucZssskmbiCmxp1hky7kG264oWx2Nf5U0vqjprXWWssdHFTLL7fcclFXw3JFAsWNwzfeeOOiHKWfqlTBBmD+L73SuXkVgeoE9Pnj710dtlrkf//7n7ehddZZxy0t915I2YTTdjf0ESmY/d3vfueO9K6FVMpx5JFHhl4+DRlVqqpCBjtIrRqdO+3A0nBoPToGW/2olSgAU6CujnXqJas/Z5w0t1pS3w2bbrqp21Euq6VkNQvA1JtNvSaff/55c+GFF7pj76hHYpKKqQm8evQ+K7mwAm+bFltssdC3LfF3X/dXFdl18YhATwRUxV1t1aGqkfwlPDvssENPdiEVy06ePNk1UQ3Hv//9b++YzjnnnILe7N6MFE/84Q9/MO+88457hCo9VDBGyrf/koVKw/S+0x1Q/EnDTT355JPuSwrEbrnlFvOTn/zEnyUT0zULwHT7Dg3EqUasaqfywgsvmNdff93tjqribTXgLE4aX8b/pi6eb5/bQe401lRQ0rg/G220UVA25sck4B+o1x9UBa3eXw2se0VqCAvuyRekxvxaCWgMMN3mySYNl/OXv/zFPs3UozrVaFw0vS+Lfxypof7f//534/RkzpTJc88959XAaJidSjU2mYJxDtZfAvbII48EHr6aEmkQXwW0f/rTnwLzpylDzSurNfaT6sg1wJ9+hd5zzz1ug2IVRRYntclSr4lyf/r1pYhaY0wpqbSlXF77um3n5S7Av5oLON2xvW1EDcC0guIPem+lTCBQQwEFGfoi2HfffQtGfFeHHwVhWUyqalMPv1LvSVXt6se0BmPNStL3jqprVQ2r9l4ayzCox2hWbHScxaPgy0a9RFVqqloxtfG9++673Vox6yLLP//5z7GNAWrXm/THmpWAFR+46npVFKneIi+99JL7i0E3aFZ7L5s0an2pket1chRJ68RqoL+f/vSn5rbbbjMa9FVVnarqIiVDwPZQ1d74z23Q3hXf0LdUCWnQOpiPQE8E1FxCA0j6v0D0o1Ftew466KCerLqhl1X7HN29Qm2dFKD6k9rVqe3Xv/71L/PYY48FDu3hX7ZRp3UHCvX2VlI7uO23375RD6Um++0vAXPG0TO6g05xLdSPf/xj95ZN6rSgYYhso/0TTzzRHTU/K3dDqXkJmP8Mq7eb7pDuDNjnoof5gtbQBCriVn3xgQce6AZfWqd612lecZWlekhq9Gp9mJLqL6APapucgS7tZOBjcV6NHk1CoB4CGlpCI3XrfqT+4Es/BtUxxD9OXT32J2nbUFOSr776yug9qiYGuh2dOkL5S7h1W7Hjjjsuabse+/7oLh32FlUa4zDNd0aIiqdhOFRdr5Jk50b23YIv/3o1XNTvf/977yVdZ2oPlpVUtxIwP6h6E+kvKKnY+5///Kdb/K0qAf3ZpKpNjY+kXkq6v6Dq4dU2THXx6hqs9kMqOStXBalfcqoOVVIDyqBBGe12eaws4L/dkG2rV3mJzrn+AEznQmOzkRCopYB+wOkLVL2pVc1mkzoK6f6HZ555JmMYWZSuR7XV1J/uDakgTJ/B9obwaium8erC9nwuWnXin6rZjIILJV0jqkbLau+9SifrpJNOqjS72zy91/Q9b0sVbceGbhlT+MJ8CcCCHNVDQmMc2XG+9IWs0q/ipF6VOll6I+jXiO45pRIwFYnr12ylpN5Ntou5usqqESCp5wL++39WE4D525dkta1Nz/VZQ1gB/UjTDaT9vRz1Y00l9GqLkubxvsIaBeXTWGpq/6QfwEr6watBlNPakNq5/Z03WLSuHQUMNmgotvJXw+k7yQ6xo3xqE6UqOFKngIJYNVHSvVqV/O/Jzhzp/Z+oAEw3bFbgpVF01YhePShVJeDvWec/FSptURGmomflUxCmW4yE+QJXCZytAs3iAIJ+xzin/QGYGquqlEHtaIKSHTlZ+RgeJEiL+T0RuO+++9xGwf72ihoZX229+vXr15NVN+yyuh2bbYdjO0OFORj9cNVntW2Er+rctCbn3pjeoakNsv7CJP0Q1Qj5NsnM/vi3r2X9UW3EbACmoFbXYxYGtK1rG7Cgi0yDeGrEag1ToQb6alMQNG6YLmZbeqU2CWHbDilIu/rqq90/vvCDzkz4+f6SA1XrqKNEmOQfJJNGrWHEyBNFQF98KuWywZdK16+88krzyiuvZDb4kuOtt95q1BFGf/rBpB9OYZLyr7vuul5WDR9DQqBaAX9tiQZJz0LwJaNElYCpNEvtsfxjQpU6kXqTq7RMPSxUfajlNPyBGoJqFPVTTjklVJsuetqV0u3Za7qJrz6UbZua1157zWy77bYVV6pz5x+WJMz9IyuukJkIlBBQA18NlmlLejSEgsYn3GCDDUrkztZL/lvGqPRBVbS6i0mY5G8+kNb2X3LYb7/9QgfpKgm01Y4KaP13CfAHrGF8GymPxs6zbQJ333330B1Y/D/AS42E0EgG1exrogKwSsNJqNG82nupV4UGbNWHqIaj0AeHvvDVIHTAgAFu0e4f//hHt82YGoiWa4RfDRJ5wwsoeN5nn33cLulaSm1CNIhjpaSBevWhr6T2EZSAVdJiXlSBSy+91C1h1/L6rFFzB4KvTs3iuwQoeAgTgCnQmDZtmndK+vbt602nbUIdNsImtUu2AZg6hOmG3VlIanaiz3wlfVeH6UGsYF8FKjaFue5s3kZ/TFQVZDGmGjJq4FUFXxrMVcXkHzv3kdItQfSl7m+Yr9KsE044wW0DphIVDZyoWyD5I+vi9fO8NgL+UbEVNOs+YOWSSiwvv/xyb7aGF6FnkcfBREwC+sGmQN8m3UWDhtBWwxiNu+Tvma7Pz+Ixv/K5O6fU6F7jptmkH7tbbLGFfcpjBgX8N3HXd/WgQYMCFTRchW1D2KdPH7d9ZuBCKcmQqBKwYlMNTaAeJBpbavPNN3ff3Cq+rVSqpdIX3VNKPSLVroNqxmLV2j9XEKV2dbZqQm35Bg8ebIp/HU+aNMntQaXhRpRUVF/Nr8zaHwlbSIvAiy++6F2Puk3a3nvvbXRnjWqTOplU+vypdn1Jyq8fQhroWkm1DPoy1Y+nUp2aVOqlIRnU7MMmDYpNhyarkc1HVTvq/WWHFdL4evrhs+eee3YDUTtDBfAPP/ywN0/3FPW3I/ZmpHSiyfkVk4vz2FRqpb+tt946sC1X0Ha1a+odt0bXrYeC8hfPV8M+bhFRrFKf56reUSBmLy+Vaqk4Wu3B1D5MxfMaIVlF1jap6pgAzGoEP8pY1fA2DRkyxO0JbJ/zmBdQ9aOur54mXa9hO/r0dFvzY3m9P9Vu0yaVjCkQU2mhSsj0o2ncuHHm3nvvddvd2nxqCqLhA/TlSzLu0Ejq7KGk68X/OZd2H93tRoP32s9+FYLou0CjFKiXsXqTDh8+3B3QVoG+TWrTrRqroI53Nn8qHh0kEgI1EXB+Ueec0gIF+IF/zr3Cck41UU32I60rdUbkLnB1ArC0HmqPj8vpqFNgFeaaLJXH+SLt8b4keQUffvhhzvnxXJWVU7KdczrRJPmw6r5vzvhonqETgNV9+/N7g85Yet7xl3ofFb/mlJDlnBLp+b3bdd9+otuAOSeJ1MACuk+a7uFZqUhZVZUaDkS3n8hK1+MGPqUNu+v+gTEb9iDqsONrrrmm23RDpYUa36tS0jiKuu2b2nlmqeF0JRPmdQqoXZca1peqevQbaRiYa6+91q0N8Y8h6c+T5unYqyDTjMWxRRNQA2hVN7766qvm008/dXuwqlpZg+8dfPDBoYYMibZllkIAgagC6iCju5GMHTvWrRpSm04FaGrnpba4qpakiUdU3ewsN2LECDNs2DB3aBMNUaFrSENNqAeyqrWz3OmKACw77wOOFAEEEEAAAQQSIkAVZEJOBLuBAAIIIIAAAtkRIADLzrnmSBFAAAEEEEAgIQIEYAk5EewGAggggAACCGRHgAAsO+eaI0UAAQQQQACBhAgQgCXkRLAbCCCAAAIIIJAdAQKw7JxrjhQBBBBAAAEEEiJAAJaQE8FuIIAAAggggEB2BAjAsnOuOVIEEEAAAQQQSIgAAVhCTgS7gQACCCCAAALZESAAy8655kgRQAABBBBAICECBGAJORHsBgIIIIAAAghkR4AALDvnmiNFAAEEEEAAgYQIEIAl5ESwGwgggAACCCCQHQECsOyca44UAQQQQAABBBIiQACWkBPBbiCAAAIIIIBAdgQIwLJzrjlSBBBAAAEEEEiIAAFYQk4Eu4EAAggggAAC2REgAMvOueZIEUAAAQQQQCAhAgRgCTkR7AYCCCCAAAIIZEeAACw755ojRQABBBBAAIGECBCAJeREsBsIIIAAAgggkB0BArDsnGuOFAEEEEAAAQQSIkAAlpATwW4ggAACCCCAQHYECMCyc645UgQQQAABBBBIiEBrQvaD3aiRwNQTTqjRmlktAqUFlr/tttIzeLVAgPdmAQdPaizA+7LGwBFWTwlYBLRGWOSCCy4wCyywQCPsKvuYMoGmpibDX7BByk47h5NwAd6Twe/Jckb6LtV3atyJACxu0YSs76qrrjJz585NyN6wGwgggAACCDSmgL5L9Z0adyIAi1s0Iesj+ErIiWA3EEAAAQQaXqAW36m0AWv4y4IDQCBZArlcLlk7lNC9oQ1YQk9MBnaL92j4k6xqyVolArBaySZ4vTTGLH9y/G82PqTKO9k5BBFWIp5H3pvBjrxHg414XwYbJSEHVZBJOAvsAwIIIIAAAghkSoAALFOnm4NFAAEEEEAAgSQIEIAl4SywDwgggAACCCCQKQECsEydbg4WAQQQQAABBJIgQACWhLPAPiCAAAIIIIBApgQIwDJ1ujlYBBBAAAEEEEiCAAFYEs4C+4AAAggggAACmRIgAMvU6eZgEUAAAQQQQCAJAgRgSTgL7AMCCCCAAAIIZEqAACxTp5uDRQABBBBAAIEkCBCAJeEssA8IIIAAAgggkCkBArBMnW4OFgEEEEAAAQSSIEAAloSzwD4ggAACCCCAQKYECMAydbo5WAQQQAABBBBIggABWBLOAvuAAAIIIIAAApkSIADL1OnmYBFAAAEEEEAgCQIEYEk4C+wDAggggAACCGRKgAAsU6ebg0UAAQQQQACBJAgQgCXhLLAPCCCAAAIIIJApAQKwTJ1uDhYBBBBAAAEEkiBAAJaEs8A+IIAAAggggECmBAjAMnW6OVgEEEAAAQQQSIIAAVgSzgL7gAACCCCAAAKZEmjN1NFysAggkFqBp59+2nz99dfu8e2yyy5mpZVWSu2xcmAIpFHg888/Nx9//LH57LPPzJJLLmlWXnlls8Yaa5iFFloojYdrCMBSeVo5KASyJ/Dmm2+aTz75xD3wvn37EoBl7xLgiBtUYO7cueauu+4y//vf/7odwfnnn2822GCDbq+n4YXIVZDDhg0zjzzyiGlra+vmMGvWLPPggw+a0aNHF8zTB+RDDz1U8FpPnjz77LPm/vvv91ahfRk7dqz3POqELgT9kRBAAAEEEECgdgIdHR3m8ssvLwi+VOLVq1cvs/TSS5v111+/dhufz2uOXAI2YsQI8+KLL5p99tnHtLYWruaHH34wqg5YcMEFzYYbbugd4rvvvmuGDh1qDjnkEO+1nkxoXRMmTDCHH364uxoFY9qns88+22y88caRV639VDrmmGMir4MFEUAAAQQQQKCygEq9PvroIzfTUkstZU455RSz7rrrmlwuZ2bOnGmampoqr6CB5xZGTj04ECGOHz/eXcOcOXPcx7ffftt8+eWX3lo/+OADo2j3tttu815bddVVzR577OE9r2bCBn7t7e2mpaXFHHDAAUbb/Oc//2kuu+wys+iii5ZcnYo7dWLLJe2jkm1PUirfwgsvbBZYYIFSs3gNAQQQQAABBAIEFGQ9+uijbi4FWr/61a/MWmut5T1fbLHFAtbQ2LNjC8DU9kLVkko2gJk8eXJBEKOSMYHbfMo7b948PURKCrqUVPWoaQVFJ598srnyyivd6tFjjz225HqHDBniBmklZ/pePOuss3zPCiePO+44s9NOOxW+yDMEEEAAAQQQCCWgQo5vvvnGzavG9jb4CrVwCjLFFoAdffTRRn9K06ZNc6sBf/azn5l9993XY7r55pvdKsjrr7/ee80/8cUXX5hJkyb5X6o4bUux3nnnnYLSqN13392ss846Rq+rJ9QKK6xQcj0777yzWXvttbvNu++++9zXjjjiiG7zVFSqak4SAggggAACCEQX0He+Tcsvv7ydzMxjVQGYApoHHnjAxZkxY4b7eNFFF7l1tNtuu60XbKnx3CabbGKWW265AkhVN6qBfrmkkrF777233Oyyr99yyy3d5j333HPuawceeKC3X8WZ1ltvPdO/f//il93SM7243XbbdZundm1hAjCVAr788svu8jvssINpbo7c36HbPjTiC1OmTDHjxo1zuxdrWqWVyy67rHuNbL755qntZtyTc4VZT/SM+1mj9pwffvih+6NQXdpXW20198eZGveSCgW43go9wj7DLaxUPt/AgQPdmivb9ktzNATF888/72XacsstzRJLLOE9T+NEVQGYeibY0iRV+6lKUVGrggvV1U6cONG88cYbrpOCLT3Xnz+tssoqbg9JvaYG/Isssog3Ww3nTzrpJO950MRrr71mRo0aZfbff3/3y7xU/tVXX73UyzV/TcHkgAED3O3oGLfYYouabzOJG9B4Lo899ph566233OrnUvuoHrMHHXSQUaCa5gaXpY691GuYlVKp7rWRI0eaO+64w0yfPt1b0DZ9UHMFXW97770315ujw/XmXSJVTeBWFVdBZn3mK37wJ8UK99xzj/eSvrsJwDwO447FYcfjUMmXqhpPP/10t7ejsin4Uu9H9WRQKVi5pFKw7777zuy4444FAZiqC6sZPFEN/BWA6UT169ev3ObKvq4SPX8nAZvRXhhPPvmkfcl71JsuTNKFY4MJDSiX1fT666+71c6Vjl+lqfqyVOcIVR9nPWHW8yvAloDrx6F+ANkSe61ZnXb0BaDPDn1+9enTp+cbbOA1cL1FO3m4RXNjqbxAVSVgdjE1rrclW3r80Y9+ZGe5j7/+9a/NmmuuWfCa/4mq8OIYZ8tGx1999ZV/9aGn1Rhff+XSww8/XG5W4OtqTHjFFVe4+YqrYgMXTlGGvfbay7zwwgtuG72f//znbhXQiiuu6JaGacRjDR2iomcllZRts802BUF5iihCHwpmoanKZlRTATU/+MlPfuJeT99//73b1V1NKD799FN3OQVgGpewXGedsitP2Qyut2gnFLdoblrqwgsvdDvraSipxx9/3F2RCneOOuoob6VZ+N6MFIBpQFWb1P7q0ksvddv02Nf0hbv44ovbp90e7WjV3WZU+YINwFQSV01S2y61WSuXNI6Y0tVXX10ui1e6VTaDMyMLF1Cl49c8lT6cdtpp7rguxbeT0GjlCt7PO+88t4RCX5Kvvvqq2XPPPYNWm+r5mPX89Kopg9oW2qQ2h2rioA/5u+++26gNitKgQYPcknj1wMpq4nqLduZxi+ampWxN1/vvv++tRN8PaqKUpRQpAFNVo9p8qVhfjVk1rtcZZ5zhuekXZqmqPZvBdju1z+3j7NmzvXZT9rVyj/rVaqv2Km2r3PK2erDcfL0eJk+l5ZnXKaBAq1xSSYXu26fSLyV/r5hyy2Thdcx6dpbLNYFQ+68jjzzSqI2YPjc0LI5Kwc4999yebbDBl+Z6i3YCcYvmxlKdAlUHYGo3pbG71OZq8ODB7mjxKgFTmws7aNovf/nLSFWQWq+KJP1J7TWU7Jhfdp6GiFBVltp4VFMCpupT2z7Erqv4USUxSv/617+KZxU8V+Cgzgak6gXU3ksNpJdZZhn3PNo1EIBZie6PmHU3ifKKgjNVT9re0xogmtRdgOutu0mYV3ALo0QeCVQVgKnno8bIUhXR1KlTXUENJaDeRGrUeuihh7qvqfF6uVHolaFcQ3Yt4x8lX3l1I04FYVdddZWedkvqhamxwxS8lfvV619IX/qqflBxZ7mR7PUGUrK3JPIvr2mN9K+G+hpqgwCsWKf0c5U0qCfkSy+9ZBQE21JQ3c3AX11d6e4Dpdec3lcxq9259bdRVcm7rjt1Hspy4nqLdvZxi+bGUlUGYM8884w7to6GC/DfVPunP/2pW5SvYET3ftQHmv6UVE2pAEmN0lXdpNS7d283nx57mjSuj77QVZfsv+9k0HrVIFzDYJRKdgT8a665ptRsdxywODoRlFx5Cl9UCcOdd95pSrX9U1DvL8G0JZ4pZKjqkDCriqvqzPrhqFJ1e72pI0iWAzCut6ovIXcB3KK5sVSnQOgSMAVU//nPf9z7NtpAyiKqJEnj6ijZYSrsPLXtUYmXGrarIWzcSSPZq1PAmDFjqgrA4t6P4vXJy45pop4dxWbF+dP6XF9sKr20Q3voGlAJqkog9CWo11WtXWrIj7SaBB0XZkFCPZ+v4Esl5jYA6/kaG3cNXG/Rzh1u0dxYKi8QOgBTAKE2V6XGaVKVnXoTlUpq06Vl1butVFJDeo14GzVpgFNVi44ePdoLAqOuK87lVH2pG5QracT9UqPqx7m9JK5LwZVKEW3wpQarp556ardR71WlawOwrHd8wKw+V7KcbSm9tpjF26DouLnepFB9wq16M5boLhA6ANOiulO5bWjvX5W+QINuIVRu/vrrr9+jAEzVBqre1JhSGtzV3/ZMVaYabqLUPusWCDZA8h+LpnU8SuXmq9g5KOlelHaYjOJx0oKWTct8lUraMdpU2qXhKLJaEhj2nGIWVqpn+fxtDdUOMau3JuJ6i3Yd4RbNjaUKBaoKwNRjrVRStZIddNTOV8PEG264wW2srzE/1E6rVO/IatqBqeG/2nrpb8KECeaSSy4x+vDcaqutjIIi9crUDcCV9OtWHQMUaOmLvzipZK64x2VxnuIOAcXzKz1XwGHHESvuwVlpuTTNGz9+vHc4m222GcGXp1F+ArPyNnHOGTt2rLc6vVezeq9WrjfvMqhqArequMhcRqCqAKzMOtwPL38RvqokBwwY4I44fdhhh5mddtrJXHnlleb222937/UYVOWohvsajkA3OdVti1Tcq9H1VcKlpGoqe09KPVengCeeeMIdcV1VpGqTphs/KwhUCZs/qTTquuuu87/Ubfriiy92X7OP3TJ0vRDUpi2rgZf1mjlzpp30SgO9F3wTdtgPvaRzluWEWe3Pvjp+PPXUU96GNJxMVhPXW7Qzj1s0N5YqFIglAPOvUoOw3nrrrW7wpWBIDa7161IDHSoIu/HGG81uu+3m9kC0A6na5V9++WW3PZcCLn/SMAVqtK2qRjW616N/VHVNq0ejembq9kEaaFG3GFKgVjxQnkrMbNWgfxv+aftrOCiffxmmuwv4h+jQwJcarqQ4jRgxwvzjH//wXlaVpRpGZzV4xcy7FHo0oetto4026nYd6cedeuTaKkj9kMtyAMb1Fu0ywy2aG0sVCsQSgKnN1GuvvWYUQKnKT0HOCSecYLbffntva7rhrW45owBJY0FpLC7dp02Bky3N0m0IFFzZm3KvvPLKRn9BJU3aiII9BV0aZFXDXqgETON0las29XaMiZoJqNrxkUcecdvU6b57N910k1saqsBW9xBVxwm1s+vo6PD2QaUTas+nQDuLCbN4zro+B9QRpn///u79RxXYqwmDmh3YElf9QDv88MO7BWnx7EFjrIXrLdp5wi2aG0sVCsQWgGnIBZVoHXLIIW7gVarhu4KwY445xuy6665GN8VVwKbSrtNPP93dKwVfUW8JorZk55xzjjvkgb7Y1dhbo+WT5p+A2tboC87eUUDDhfjvI6o901AAuiY0VInuIaqkUlK179O91rKWMOv5GVeJuJpB6FZDtndt8Vr1I+DEE0907w9ZPC9Lz7neop1t3KK5sVShQOQATO2uNOaXvkAV7Ki9lEqrwgwjoBKuM88806ghrIKuuJJ6QOqLWwN+KhgsFQSG2RaBWxilcHl23nlnt8pXbQK//fZbbyFdM2s4N0DWGGkqzlfJl8bVUfCsgVnVBjCLAZiAMPMuk0gTuhH3csst547Dp5JwfwmrejuqXah+GPh7TEfaUEoW4nqLdiJxi+bGUnmBJqfRc7ZbPectUjVlA+Epxx/f7biWd26eXu+ky0ydKhRcqcpZX4R2H/37olIL5dEdDlRiWu/k36f5/dZoBLOpTlOD4jQ/ri/tg4YGUCCvpgc2qSRMTRL0qEA/THMGu2ytH5Nkp2NthOtN+5mk92hS3UpdWys4neBsmt+fbXY/GuGxltdb5BKwRoBjH5MjoItYA/nqr1JS0b7+SJ1fNJiFvxKK78KhJdU0Ic5S9vB703g5eY9GO2e4RXNjKWOaQUAAAQQQQAABBBCorwABWH292RoCCCCAAAIIIEAJGNcAAggggAACCCBQbwFKwOotzvYQQAABBBBAIPMCBGCZvwQAQAABBBBAAIF6CxCA1Vuc7SGAAAIIIIBA5gUIwDJ/CQCAAAIIIIAAAvUWIACrtzjbQwABBBBAAIHMCxCAZf4SAAABBBBAAAEE6i1AAFZvcbaHAAIIIIAAApkXIADL/CUAAAIIIIAAAgjUW4AArN7ibA8BBBBAAAEEMi9AAJb5SwAABBBAAAEEEKi3AAFYvcXZHgIIIIAAAghkXoAALPOXAAAIIIAAAgggUG8BArB6i7M9BBBAAAEEEMi8AAFY5i8BABBAAAEEEECg3gIEYPUWZ3sIIIAAAgggkHkBArDMXwIAIIAAAggggEC9BQjA6i3O9hBAAAEEEEAg8wIEYJm/BABAAAEEEEAAgXoLEIDVW5ztIYAAAggggEDmBQjAMn8JAIAAAggggAAC9RYgAKu3ONtDAAEEEEAAgcwLEIBl/hIAAAEEEEAAAQTqLdCUc1K9N8r2ai/Q1NTkbmTK8cfXfmNsAQGfwPK33eZ7xmQ5gaknnFBuFq8jELvACrff7q2Tr32PInDCfpcqY9xurYFbJwMCCCBQhYD/A6uKxTKXlR9HmTvliTlg3qPJOBVUQSbjPMS+F7179459nawQAQQQQACBLArU4juVACylV9I555xjanHBpJSLw0IAAQQQQKCkgL5L9Z0ad6INWNyiCVsf7UwSdkIysDu0AQt3knlvhnMiVzwCvC/jcYxzLQRgcWqyLgQQQAABBBBAIIQAVZAhkMiCAAIIIIAAAgjEKUAAFqcm60IAAQQQQAABBEIIEICFQCILAggggAACCCAQpwABWJyarAsBBBBAAAEEEAghQAAWAoksCCCAAAIIIIBAnAIEYHFqsi4EEEAAAQQQQCCEAAFYCCSyIIAAAggggAACcQoQgMWpyboQQAABBBBAAIEQAgRgIZDIggACCCCAAAIIxClAABanJutCAAEEEEAAAQRCCBCAhUAiCwIIIIAAAgggEKcAAVicmqwLAQQQQAABBBAIIUAAFgKJLAgggAACCCCAQJwCBGBxarIuBBBAAAEEEEAghAABWAgksiCAAAIIIIAAAnEKEIDFqcm6EEAAAQQQQACBEAIEYCGQyIIAAggggAACCMQpQAAWpybrQgABBBBAAAEEQggQgIVAIgsCCCCAAAIIIBCnAAFYnJqsCwEEEEAAAQQQCCFAABYCiSwIIIAAAggggECcAgRgcWqyLgQQQAABBBBAIIQAAVgIJLIggAACCCCAAAJxChCAxanJuhBAAAEEEEAAgRACBGAhkMiCAAIIIIAAAgjEKUAAFqcm60IAAQQQQAABBEIIEICFQCILAggggAACCCAQpwABWJyarAsBBBBAAAEEEAghQAAWAoksCCCAAAIIIIBAnAIEYHFqsi4EEEAAAQQQQCCEAAFYCCSyIIAAAggggAACcQoQgMWpyboQQAABBBBAAIEQAgRgIZDIggACCCCAAAIIxClAABanJutCAAEEEEAAAQRCCBCAhUAiCwIIIIAAAgggEKcAAVicmqwLAQQQQAABBBAIIUAAFgKJLAgggAACCCCAQJwCBGBxarIuBBBAAAEEEEAghAABWAgksiCAAAIIIIAAAnEKEIDFqcm6EEAAAQQQQACBEAIEYCGQyIIAAggggAACCMQpQAAWpybrQgABBBBAAAEEQggQgIVAIgsCCCCAAAIIIBCnAAFYnJqsCwEEEEAAAQQQCCFAABYCiSwIIIAAAggggECcAgRgcWqyLgQQQAABBBBAIIQAAVgIJLIggAACCCCAAAJxChCAxanJuhBAAAEEEEAAgRACBGAhkMiCAAIIIIAAAgjEKUAAFqcm60IAAQQQQAABBEIIEICFQCILAggggAACCCAQpwABWJyarAsBBBBAAAEEEAghQAAWAoksCCCAAAIIIIBAnAIEYHFqsi4EEEAAAQQQQCCEAAFYCCSyIIAAAggggAACcQoQgMWpyboQQAABBBBAAIEQAgRgIZDIggACCCCAAAIIxClAABanJutCAAEEEEAAAQRCCBCAhUAiCwIIIIAAAgggEKcAAVicmqwLAQQQQAABBBAIIUAAFgKJLAgggAACCCCAQJwCBGBxarIuBBBAAAEEEEAghAABWAgksiCAAAIIIIAAAnEKEIDFqcm6EEAAAQQQQACBEAIEYCGQyIIAAggggAACCMQpQAAWpybrQgABBBBAAAEEQggQgIVAIgsCCCCAAAIIIBCnAAFYnJqsCwEEEEAAAQQQCCFAABYCiSwIIIAAAggggECcAgRgcWqyLgQQQAABBBBAIIQAAVgIJLIggAACCCCAAAJxChCAxanJuhBAAAEEEEAAgRACBGAhkMiCAAIIIIAAAgjEKUAAFqcm60IAAQQQQAABBEIIEICFQCILAggggAACCCAQpwABWJyarAsBBBBAAAEEEAghQAAWAoksCCCAAAIIIIBAnAIEYHFqsi4EEEAAAQQQQCCEAAFYCCSyIIAAAggggEC8Ah0dOXPzg8+a/zfgMTPrhznxrrwB1tbaAPvILiKAAAIIIIBAygTeHvW+eXLQEPeoVl9hWXPoXtum7AgrHw4lYJV9mIsAAggggAACNRB4/b3x3loHDR3hTWdlggAsK2ea40QAAQQQQCAhArlczgwZ8b63N59M/tJ8OGmK9zwLEwRgWTjLHCMCCCCAAAIJEhj/8Wdm+oyZBXs0aMjIgudpf0IAlvYzzPEhgAACCCCQMIE33suXfjU5pWFKg98eZVQylpVEAJaVM81xIoAAAgggkBCBN94b5+7JgrkOs0NHZ0nYV9NnmBHvf5KQPaz9bhCA1d6YLSCAAAIIIIBAl8CUr6abiU6bL6W+HT+Y7dq/75pjzKCh2amGJADzTjsTCCCAAAIIIFBrgTd8vR837Zhl1s7NNsvm2tzNvvruGDOvrb3Wu5CI9ROAJeI0sBMIIIAAAghkQ+CN4Z3Vj81Oey+VgCn17yoFmzlrtnlrZL59WJpFCMDSfHY5NgQQQAABBBIkoABr1AcT3T1azyn56mM63Omt2/M9IgdmpBqSACxBFya7ggACCCCAQJoFhjqlW7oFkVK/9s7SL02vZOaZ1TrmatIZH2x8Jm5NRADmnm7+IYAAAggggECtBfztv37stP/yp226qiHVBuy1YWP8s1I5TQCWytPKQSGAAAIIIJAsgbb2dvP26AnuTq3ilHYtazob3tu93MoZjsKOCZaFakgCMHvmeUQAAQQQQACBmgm8N+5j88PszmrGfl2N7/0bW9K0m/WddmFKyjv923y7MH++tEwTgKXlTHIcCCCAAAIIJFjAX/3YryM/9pd/l21vyA6nh+Tgt0b5Z6VumgAsdaeUA0IAAQQQQCB5Ampcr7RErt2snussCSvey82ddmGtXbcjGjh0RPHsVD0nAEvV6eRgEEAAAQQQSJ7AB59ONl86txpS0uCrTWV2UcNS9M119o6cMHGy+WzqtDI5G/9lArDGP4ccAQIIIIAAAokW8N982z/8RKmd3qYtXz35UorHBCMAK3X2eQ0BBBBAAAEEYhOwo9/3dm6+vX6ucPiJ4o30zX1vFnLyKQ1OcTUkAVjxmec5AggggAACCMQm8JVT9fjhpCnu+jZ2ejn2Cliz5m/ZNUbY5C+nm3EfTQpYojFnE4A15nljrxFAAAEEEGgIgTd9N9/u11659Mse0NZdg7LqeVqrIQnA7NnmEQEEEEAAAQRiF3j9vc6bb2uQVXvz7aCNrOc0xFdvSaVX3h5t2js6qySDlmuk+QRgjXS22FcEEEAAAQQaSGDW7DlmxPiP3T1e1xl6YlFnsNUwScGJLQX75rvvzbCxH4ZZrKHyEIA11OliZxFAAAEEEGgcgXdGf2Da2jtLrzYNWf1oj24b59ZENg0cMtJOpuaRACw1p5IDQQABBBBAIFkCrw/vrH7UXmn8r2rSak6J2Yq5ee4irw8fa+bM7ZyuZh1JzksAluSzw74hgAACCCDQoAJqt/XWqM6bbyuQWsFUH0D17xoTbPaceeaNrrZkDcrRbbcJwLqR8AICCCCAAAII9FRg1ISJZuaszptrb9reObp9tevsn+JqSAKwaq8G8iOAAAIIIIBAoEDhzberq360K1/WtJm1O+a4T9WebMbMaOux60vSIwFYks4G+4IAAggggEBKBOz4X4s4w0ms5QzAGjX17xoTTFWar7wzJupqErccAVjiTgk7hAACCCCAQGMLfPL5F2bKV9Pdg9i04wfTk2Bjq47vTbMzhpjSwBTdmqgnJi4G/xBAAAEEEEAAAb/Am++97z0NO/q9t0DRhMYO28gZmFVp9Aefmi+mfVOUozGfEoA15nljrxFAAAEEEEisgB39vtUpudqwK3jqyc7aakitY9DQUT1ZVWKWJQBLzKlgRxBAAAEEEGh8gekzZprxH3/mHohKrhYwndWHPTmyzZwxxHrnOgd0HZSSakgCsJ5cESyLAAIIIIAAAgUCQ0bkqx83bY/e+N6/UgVxmzltyZQ+mfyl+WjSVP/shpwmAGvI08ZOI4AAAgggkEwBb/R7p/pxU6cBfVxpm67ekFrfwKGNf2siArC4rgzWgwACCCCAQMYFZju3Cxo+7iNXYS3nVkKLh7z5dhi2DXOzjIa0UBr81kiT6+oZGWbZJOYhAEviWWGfEEAAAQQQaECBYWM+MHPntbl7HnX0+3KH3eLM2KrrfpJfTZ9hRr7/SbmsDfE6AVhDnCZ2EgEEEEAAgeQLvP7eeG8n++Xiq360K/X3hmz0akgCMHtWeUQAAQQQQACByAIdHTkztKsB/rK5NrOycwPuuNM6zoj6WrfSq++OMfPaOqsk495OPdZHAFYPZbaBAAIIIIBAygXGfTTJfNt1r8Z+XVWFtTjkrbsa4+tG32+Pyve4rMW2arlOArBa6rJuBBBAAAEEMiJQUP3Y3jlkRC0OvX/7TG+1Axt4UFYCMO80MoEAAggggAACUQXefG+cu2gfZ8DUdWIY/b7cfqxk5pnVOua6s7XNWT/MKZc10a8TgCX69LBzCCCAAAIIJF/gsy+mmUlTp7k7+mNnwFT1WKxlso3x1QbstWFjarmpmq2bAKxmtKwYAQQQQACBbAj4b769aQ3bf1nNrTtmmqauccAatRqSAMyeTR4RQAABBBBAIJLAG8M7qx9bnKBo4zoEYEs6A7yul+usenzPGfh1+rf5dmGRDmA+LEQANh/Q2SQCCCCAAAJpEZjh9Hwc8+Gn7uGs7wwTsVAMN98OY2Mb43c4Qd/gt0eFWSRReQjAEnU62BkEEEAAAQQaS2DoyPeNgiClfjXs/VissoVT0tZqqyGHjCienfjnBGCJP0XsIAIIIIAAAskV8A8/UY/2X1aij+kwfbt6W06YONl81tUJwM5P+iMBWNLPEPuHAAIIIIBAQgXmOfd9fNe5/6OShoZYynSOUl+v3e3flr/d0aChI+u12Vi2QwAWCyMrQQABBBBAIHsCw8d/ZGbP6bzlUD9n+Ik4kyo1Fc7NNk3me9NsZjiDW3xtWs0Xzt9k08tMauptlnAa46vhv9LAoY1VDdnq7jX/EEAAAQQQQACBKgVeH56/+fbE5l7mrqalnZCoyfkzznCpTaajqfPRvtbuBFLrdcw2B7RPr7ill5sXMXe3Lm3ampwVhEyTv5xuVBW5zmorhlxi/mYjAJu//mwdAQQQQACBhhUYNvYjb9/fbe7jTVeaGN+8gNm+/TuzTIXqyjdbFq4q+LLby3WVhtnnSX4kAEvy2WHfEEAAAQQQSLCASpumfFW+NEsFWC0tLaaX89fe0WHmOm3GlGZrRmfNYcmjs+VeLc3NZuetNzGtzvLuX2vnulpamk0vZ9r/+uorLmPWXX2lkutL4osEYEk8K+wTAggggAACDSDwuxMONF8esKu7pwq0Wn0BkqYVQNn07+deM3c89qL7VFWSlVJLV3TW6gRaZx6zb6WsDTuPAKxhTx07jgACCCCAwPwVaHJKspZbeolQO6HSKpvanLZglZINTua1qzVZOlNlgXQeM0eFAAIIIIAAAnUWULWhTUFhVa+utlwdHTnTSO267PGFecxrhMlNHgQQQAABBBBAIIJAr9Z8yNEWWAWZ30Bbe0f+SYqm8hopOigOBQEEEEAAAQSSJeCvggzbBkxH0NYWVF6WrOMMuzcEYGGlyIcAAggggAACkQXUSN+moPHyW31dJNs7CMCsG48IIIAAAggggEBVAho2wqagAVZbfENUzKMEzLLxiAACCCCAAAIIVCegISVsCirT8peAUQVp1XhEAAEEEEAAAQSqFCisggwYB6wpXwSmAVzTmPLhaBqPjmNCAAEEEEAAgUQI+KsgdU/ISokqyEo6zEMAAQQQQAABBEIK+EfFD2yE77unI1WQIYHJhgACCCCAAAIIFAvo1kQ2BQ9DYXMa5x6SQS3G8nkbaapyGWAjHQn7igACCCCAAAKJFfBXQQYNxOpvhE8vyMSeUnYMAQQQQAABBJIu0NLsLwGrvLf2ZtzK1c5I+JWxmIsAAggggAACCJQT8FdBBo0DZm/GrXW1pfSG3FRBlrtSeB0BBBBAAAEEYhPwV0G2Vx6FwrSY/NATVEHGdgpYEQIIIIAAAghkTcDfC7I9VzkCK6yCpBF+1q4VjhcBBBBAAAEEYhIoqII0lQOwwirIfGlYTLuSiNVQBZmI08BOIIAAAgggkG6BVt/NuIOqIFt944BRBZnu64KjQwABBBBAAIEaCvgDsOBhKPI70k4j/DwGUwgggAACCCCAQDUC/irI4IFY8/eCpBdkNcrkRQABBBBAAAEEfAKtLflWT0HN6v0Dsba154Mx3+oafjKv0fCHwgEggAACCCCAQFIFmpqaTHNzZ+P7ec50pZQfstUZB6wtKFyrtKbkziMAS+65Yc8QQAABBBBIlUCvrob4QSFVq28cMKogU3UJcDAIIIAAAgggUG+Blq4ALKgRfkEJGI3w632a2B4CCCCAAAIIpEnANsRvN5Ur4FoYhiJNp51jQQABBBBAAIH5KWAb4gdXQeYb3jMMxfw8Y2wbAQQQQAABBBpewI4FVk0V5Lx2RsJv+BPPASCAAAIIIIDA/BOwVZBtAbtQMAwFvSADtJiNAAIIIIAAAghUELAlYO2Bw1DkqyDpBVkBlFkIIIAAAggggECQgBeABdyMu8UQgAVZMh8BBBBAAAEEEAglYKsgq2mEz0CsoWjJhAACCCCAAAIIlBawvSDnBZaA5ZdvoxF+HoMpBBBAAAEEEECgWgFbBRnUC1I3KmruGguMNmDVKpMfAQQQQAABBBDwCdgALKgKUovYnpBUQfoAmUQAAQQQQAABBKoVyLcBq3wzbq3X3o6IKshqlcmPAAIIIIAAAgj4BKopAbM9IamC9AEyiQACCCCAAAIIVCtgG+HnnHHAgsa379W1cgKwapXJjwACCCCAAAII+ARsFaReChoN3ysBYyR8nyCTCCCAAAIIIIBAlQK2ClKLtQcMReE1wm8P02S/yh1JQPbmBOwDu4AAAggggAACGRCwVZA61DZTOQRp6RoMn0b4GbgwOEQEEEAAAQQQqJ2AvwoyqFyLKsjanQfWjAACCCCAAAIZEmhpsYNLUAVZufwvQxcFh4oAAggggAACtRXo5QvAgkbDt6EavSBre05YOwIIIIAAAgikXMBfBdkWMBZra9dAFYyEn/KLgsNDAAEEEEAAgdoK+BvhB/WCtCVg7dyMu7YnhbUjgAACCCCAQLoF/FWQYRvhz2MYinRfFBwdAggggAACCNRWwF8F2R4wDEUv0zkOBVWQtT0nrB0BBBBAAAEEUi7g7wUZ1Ai/uWscMJG0dwTduKjx4OgF2XjnjD1GAAEEEECgIQX8VZBBtyKyJWA60DSWghGANeQlzE4jgAACCCDQeAItLfmuj2Eb4eso0zgUBQFY412/7DECCCCAAAINKeBvAxZUBWlHwteBpvF2RARgDXkJs9MIIIAAAgg0nkBBFWS+MKzkgdibcWsmVZAliXgRAQQQQAABBBAIFmhpyZf7BFVBtvob4adwKIq8RLAbORBAAAEEEEAAgcgChVWQlVfjr4JM41hgBGCVzz9zEUAAAQQQQCAmAX8VZNA4YC25fBEYVZAxnQBWgwACCCCAAALZE/CPAxY8En7eJ423I6IELH9+mUIAAQQQQACBGgoUVkFWboXvb4RPFWQNTwqrRgABBBBAAIF0C1RzM25/AJbGKsjWdJ9qjg4BBBBAAAEEkiLQ2tLi7cr4lt6ml1ncqCpSPSLbmvTnTOea3OcTm3t7edtT2AuSAMw7vUwggAACCCCAQC0F/FWQI5r7GP2FSR2+Bvlh8jdCHtqANcJZYh8RQAABBBBIgcAySyxmFlskXNBlD3fFZZc066y2on2amsemnJNSczQcCAIIWIMJfQAAA19JREFUIIAAAggkWuCb7743H3821bQ0NxtVSapUzH10BmnVtHpKariKzulm02fBBRJ9PFF3jgAsqhzLIYAAAggggAACEQWogowIx2IIIIAAAggggEBUAQKwqHIshwACCCCAAAIIRBQgAIsIx2IIIIAAAggggEBUAQKwqHIshwACCCCAAAIIRBQgAIsIx2IIIIAAAggggEBUAQKwqHIshwACCCCAAAIIRBQgAIsIx2IIIIAAAggggEBUAQKwqHIshwACCCCAAAIIRBQgAIsIx2IIIIAAAggggEBUAQKwqHIshwACCCCAAAIIRBQgAIsIx2IIIIAAAggggEBUAQKwqHIshwACCCCAAAIIRBQgAIsIx2IIIIAAAggggEBUAQKwqHIshwACCCCAAAIIRBQgAIsIx2IIIIAAAggggEBUAQKwqHIshwACCCCAAAIIRBQgAIsIx2IIIIAAAggggEBUAQKwqHIshwACCCCAAAIIRBQgAIsIx2IIIIAAAggggEBUAQKwqHIshwACCCCAAAIIRBQgAIsIx2IIIIAAAggggEBUAQKwqHIshwACCCCAAAIIRBQgAIsIx2IIIIAAAggggEBUAQKwqHIshwACCCCAAAIIRBQgAIsIx2IIIIAAAggggEBUAQKwqHIshwACCCCAAAIIRBQgAIsIx2IIIIAAAggggEBUAQKwqHIshwACCCCAAAIIRBQgAIsIx2IIIIAAAggggEBUAQKwqHIshwACCCCAAAIIRBQgAIsIx2IIIIAAAggggEBUAQKwqHIshwACCCCAAAIIRBQgAIsIx2IIIIAAAggggEBUAQKwqHIshwACCCCAAAIIRBQgAIsIx2IIIIAAAggggEBUAQKwqHIshwACCCCAAAIIRBQgAIsIx2IIIIAAAggggEBUAQKwqHIshwACCCCAAAIIRBQgAIsIx2IIIIAAAggggEBUAQKwqHIshwACCCCAAAIIRBQgAIsIx2IIIIAAAggggEBUAQKwqHIshwACCCCAAAIIRBQgAIsIx2IIIIAAAggggEBUAQKwqHIshwACCCCAAAIIRBQgAIsIx2IIIIAAAggggEBUAQKwqHIshwACCCCAAAIIRBQgAIsIx2IIIIAAAggggEBUAQKwqHIshwACCCCAAAIIRBT4/7T+6va4g2MsAAAAAElFTkSuQmCC;" vertex="1" parent="1">
          <mxGeometry x="150" y="300" width="520" height="351" as="geometry" />
        </mxCell>
        <mxCell id="w9DUgcuC_d8XELyfp8eT-2" value="前缀表" style="text;html=1;align=center;verticalAlign=middle;resizable=0;points=[];autosize=1;strokeColor=none;fillColor=none;" vertex="1" parent="1">
          <mxGeometry x="160" y="450" width="60" height="30" as="geometry" />
        </mxCell>
        <mxCell id="w9DUgcuC_d8XELyfp8eT-3" value="&lt;font style=&quot;font-size: 20px;&quot;&gt;0&amp;nbsp; &amp;nbsp; &amp;nbsp; &amp;nbsp; &amp;nbsp; &amp;nbsp;1&amp;nbsp; &amp;nbsp; &amp;nbsp; &amp;nbsp; &amp;nbsp; 0&amp;nbsp; &amp;nbsp; &amp;nbsp; &amp;nbsp; &amp;nbsp; &amp;nbsp;1&amp;nbsp; &amp;nbsp; &amp;nbsp; &amp;nbsp; &amp;nbsp; 2&amp;nbsp; &amp;nbsp; &amp;nbsp; &amp;nbsp; &amp;nbsp; 0&lt;/font&gt;" style="text;html=1;align=center;verticalAlign=middle;resizable=0;points=[];autosize=1;strokeColor=none;fillColor=none;" vertex="1" parent="1">
          <mxGeometry x="260" y="450" width="380" height="40" as="geometry" />
        </mxCell>
        <mxCell id="w9DUgcuC_d8XELyfp8eT-4" value="" style="shape=flexArrow;endArrow=classic;html=1;rounded=0;" edge="1" parent="1">
          <mxGeometry width="50" height="50" relative="1" as="geometry">
            <mxPoint x="560" y="490.0022222222224" as="sourcePoint" />
            <mxPoint x="430" y="350" as="targetPoint" />
          </mxGeometry>
        </mxCell>
      </root>
    </mxGraphModel>
  </diagram>
</mxfile>
